<?xml version="1.0" encoding="UTF-8"?>
<svg width="860px" height="217px" viewBox="0 0 860 217" version="1.1" xmlns="http://www.w3.org/2000/svg" xmlns:xlink="http://www.w3.org/1999/xlink">
    <!-- Generator: Sketch 52.5 (67469) - http://www.bohemiancoding.com/sketch -->
    <title>logo_ah</title>
    <desc>Created with Sketch.</desc>
    <g id="Page-1" stroke="none" stroke-width="1" fill="none" fill-rule="evenodd">
        <g id="logo_ah">
            <g id="Layer_3">
                <g id="Group">
                    <path d="M71.3,198.1 L28.5,198.1 L22.5,214.6 L0.1,214.6 L37.2,118.8 L62.8,118.8 L99.7,214.6 L77.3,214.6 L71.3,198.1 Z M34,180.4 L65.7,180.4 L49.9,136.4 L34,180.4 Z" id="Shape" fill="#005C95" fill-rule="nonzero"></path>
                    <path d="M150,205.8 C144.5,212.6 136.9,216.3 128.6,216.3 C111.1,216.3 97.9,203.1 97.9,180 C97.9,157.3 111,143.5 128.6,143.5 C136.8,143.5 144.5,147.1 150,154.1 L150,118.8 L168.4,118.8 L168.4,214.6 L150,214.6 L150,205.8 Z M150,167.6 C146.8,163 140.4,159.7 134.2,159.7 C123.9,159.7 116.7,167.9 116.7,180 C116.7,191.9 123.9,200.1 134.2,200.1 C140.4,200.1 146.8,196.8 150,192.2 L150,167.6 Z" id="Shape" fill="#005C95" fill-rule="nonzero"></path>
                    <polygon id="Path" fill="#005C95" points="172.8 145.2 192.4 145.2 210.5 193.5 228.6 145.2 248.2 145.2 220.4 214.6 200.7 214.6"></polygon>
                    <path d="M282.1,143.5 C302.8,143.5 316.9,159 316.9,181.7 L316.9,185.7 L265.3,185.7 C266.4,194.5 273.5,201.8 285.3,201.8 C291.8,201.8 299.4,199.2 303.8,194.9 L311.8,206.7 C304.8,213.2 294,216.3 283.2,216.3 C262.1,216.3 246.1,202.1 246.1,179.8 C246.2,159.7 261,143.5 282.1,143.5 Z M265,173.4 L299.2,173.4 C298.8,166.8 294.2,158 282.1,158 C270.8,158 265.9,166.5 265,173.4 Z" id="Shape" fill="#005C95" fill-rule="nonzero"></path>
                    <path d="M371.2,172.7 C371.2,163.1 366.2,159.8 358.4,159.8 C351.2,159.8 345.6,163.8 342.6,168 L342.6,214.7 L324.4,214.7 L324.4,145.3 L342.6,145.3 L342.6,154.3 C347.1,149 355.5,143.5 366.9,143.5 C382.1,143.5 389.5,152.1 389.5,165.6 L389.5,214.6 L371.3,214.6 L371.3,172.7 L371.2,172.7 Z" id="Path" fill="#005C95"></path>
                    <path d="M405.3,197.4 L405.3,161.2 L393.8,161.2 L393.8,145.3 L405.3,145.3 L405.3,126.3 L423.7,126.3 L423.7,145.3 L437.8,145.3 L437.8,161.2 L423.7,161.2 L423.7,192.5 C423.7,196.8 426,200.1 430,200.1 C432.7,200.1 435.3,199.1 436.3,198.1 L440.2,211.9 C437.5,214.3 432.6,216.4 425,216.4 C412.2,216.3 405.3,209.7 405.3,197.4 Z" id="Path" fill="#005C95"></path>
                    <polygon id="Path" fill="#005C95" points="527.3 174.4 482 174.4 482 214.6 461.6 214.6 461.6 118.8 482 118.8 482 156.4 527.3 156.4 527.3 118.8 547.8 118.8 547.8 214.6 527.3 214.6"></polygon>
                    <path d="M591.9,143.5 C612.6,143.5 626.7,159 626.7,181.7 L626.7,185.7 L575.1,185.7 C576.2,194.5 583.3,201.8 595.1,201.8 C601.6,201.8 609.2,199.2 613.6,194.9 L621.6,206.7 C614.6,213.2 603.8,216.3 593,216.3 C571.9,216.3 555.9,202.1 555.9,179.8 C556,159.7 570.8,143.5 591.9,143.5 Z M574.8,173.4 L609,173.4 C608.6,166.8 604,158 591.9,158 C580.6,158 575.7,166.5 574.8,173.4 Z" id="Shape" fill="#005C95" fill-rule="nonzero"></path>
                    <path d="M684.6,205.8 C679.1,212.6 671.5,216.3 663.2,216.3 C645.7,216.3 632.5,203.1 632.5,180 C632.5,157.3 645.6,143.5 663.2,143.5 C671.4,143.5 679.1,147.1 684.6,154.1 L684.6,145.2 L703,145.2 L703,214.6 L684.6,214.6 L684.6,205.8 Z M684.6,167.8 C681.4,163.2 675,159.9 668.8,159.9 C658.5,159.9 651.3,167.9 651.3,180 C651.3,191.9 658.5,200.1 668.8,200.1 C675,200.1 681.4,196.8 684.6,192.2 L684.6,167.8 Z" id="Shape" fill="#005C95" fill-rule="nonzero"></path>
                    <rect id="Rectangle" fill="#005C95" x="715.3" y="118.8" width="18.2" height="95.8"></rect>
                    <path d="M752.3,197.4 L752.3,161.2 L740.8,161.2 L740.8,145.3 L752.3,145.3 L752.3,126.3 L770.7,126.3 L770.7,145.3 L784.8,145.3 L784.8,161.2 L770.7,161.2 L770.7,192.5 C770.7,196.8 773,200.1 777,200.1 C779.7,200.1 782.3,199.1 783.3,198.1 L787.2,211.9 C784.5,214.3 779.6,216.4 772,216.4 C759.2,216.3 752.3,209.7 752.3,197.4 Z" id="Path" fill="#005C95"></path>
                    <path d="M841.4,172.4 C841.4,162.8 836.4,159.8 828.5,159.8 C821.5,159.8 815.9,163.8 812.7,168 L812.7,214.7 L794.5,214.7 L794.5,118.9 L812.7,118.9 L812.7,154.4 C817.2,149.1 825.8,143.6 837.1,143.6 C852.3,143.6 859.6,151.9 859.6,165.4 L859.6,214.7 L841.4,214.7 L841.4,172.4 Z" id="Path" fill="#005C95"></path>
                    <path d="M634.4,45.4 L640,81.1 L614.7,85.1 L609.1,49.4 L634.4,45.4 Z M637.3,41.4 L605.1,46.5 L611.8,89.1 L644,84 L637.3,41.4 Z" id="Shape" fill="#9098A1" fill-rule="nonzero"></path>
                    <path d="M619.1,56.8 L591.8,61.1 C580.2,62.9 569.2,55 567.4,43.4 L564,22.6 C563.4,19 565.9,15.6 569.5,15.1 L590.3,11.8 C601.9,10 612.9,17.9 614.7,29.5 L619.1,56.8 Z" id="Path" fill="#005C95"></path>
                    <path d="M655,51.1 L627.7,55.4 L623.4,28.1 C621.6,16.5 629.5,5.5 641.1,3.7 L661.9,0.4 C665.5,-0.2 668.9,2.3 669.4,5.9 L672.7,26.7 C674.6,38.3 666.7,49.3 655,51.1 Z" id="Path" fill="#1BA8E1"></path>
                    <path d="M609,107.9 L592.5,110.5 C589.3,111 586.3,108.8 585.8,105.6 L582.9,87 C581.5,78.4 587.4,70.3 596.1,68.9 L620.5,65 L624,87.3 C625.4,97.2 618.8,106.4 609,107.9 Z" id="Path" fill="#82C342"></path>
                    <path d="M669.6,98.4 L653.1,101 C643.3,102.6 634.1,95.9 632.5,86.1 L629,63.7 L653.4,59.8 C662,58.4 670.1,64.3 671.5,73 L674.4,91.6 C675,94.8 672.8,97.8 669.6,98.4 Z" id="Path" fill="#005D56"></path>
                </g>
            </g>
        </g>
    </g>
</svg>